<svg width="60" height="60" viewBox="0 0 60 60" fill="none" xmlns="http://www.w3.org/2000/svg">
<path d="M31 18.75C31 18.1977 30.5523 17.75 30 17.75C29.4477 17.75 29 18.1977 29 18.75H31ZM29 41.25C29 41.8023 29.4477 42.25 30 42.25C30.5523 42.25 31 41.8023 31 41.25H29ZM41.25 31C41.8023 31 42.25 30.5523 42.25 30C42.25 29.4477 41.8023 29 41.25 29V31ZM18.75 29C18.1977 29 17.75 29.4477 17.75 30C17.75 30.5523 18.1977 31 18.75 31V29ZM51.5 30C51.5 41.8741 41.8741 51.5 30 51.5V53.5C42.9787 53.5 53.5 42.9787 53.5 30H51.5ZM30 51.5C18.1259 51.5 8.5 41.8741 8.5 30H6.5C6.5 42.9787 17.0213 53.5 30 53.5V51.5ZM8.5 30C8.5 18.1259 18.1259 8.5 30 8.5V6.5C17.0213 6.5 6.5 17.0213 6.5 30H8.5ZM30 8.5C41.8741 8.5 51.5 18.1259 51.5 30H53.5C53.5 17.0213 42.9787 6.5 30 6.5V8.5ZM29 18.75L29 30H31L31 18.75H29ZM29 30V41.25H31V30H29ZM41.25 29H30V31H41.25V29ZM30 29H18.75V31H30V29Z" fill="white"/>
</svg>
