<svg width="70" height="70" viewBox="0 0 70 70" fill="none" xmlns="http://www.w3.org/2000/svg">
<path d="M34.3598 59.9695C20.2159 59.9695 8.75 48.5036 8.75 34.3597C8.75 20.2159 20.2159 8.75 34.3598 8.75C45.1075 8.75 54.3088 15.3707 58.1079 24.7561M11.9512 43.9634H19.4207C22.3674 43.9634 24.7561 41.5747 24.7561 38.628V31.6921C24.7561 28.7454 27.1448 26.3567 30.0915 26.3567H35.4268C38.3735 26.3567 40.7622 23.968 40.7622 21.0213V11.9512M51.0061 44.6037V44.4111M61.25 44.381C61.25 51.0618 51.0061 59.9695 51.0061 59.9695C51.0061 59.9695 40.7622 51.0618 40.7622 44.381C40.7622 38.8464 45.3485 34.3598 51.0061 34.3598C56.6636 34.3598 61.25 38.8464 61.25 44.381Z" stroke="#1F4529" stroke-width="2" stroke-linecap="round" stroke-linejoin="round"/>
</svg>
