<svg width="40" height="40" viewBox="0 0 40 40" fill="none" xmlns="http://www.w3.org/2000/svg">
<path d="M18 35.9999H7.99998C5.79084 35.9999 3.99999 34.209 4 31.9999L4.00015 7.99998C4.00017 5.79085 5.79103 4 8.00015 4H26.0006C28.2097 4 30.0006 5.79086 30.0006 8V16M29 28.915V28.8097M11.0006 12H23.0006M11.0006 18H23.0006M11.0006 24H17.0006M36 29C36 29 34.3397 33.8994 29 33.8139C23.6603 33.7283 22 29 22 29C22 29 23.5929 24.015 29 24.015C34.407 24.015 36 29 36 29Z" stroke="white" stroke-width="2" stroke-linecap="round" stroke-linejoin="round"/>
</svg>
