<svg width="252" height="44" viewBox="0 0 252 44" fill="none" xmlns="http://www.w3.org/2000/svg">
<g clip-path="url(#clip0_418_174)">
<path d="M47.1204 22C47.1204 22 52.0463 12.1421 60.6667 12.1421C69.2871 12.1421 74.213 22 74.213 22C74.213 22 69.2871 31.8579 60.6667 31.8579C52.0463 31.8579 47.1204 22 47.1204 22Z" stroke="#1F4529" stroke-width="4" stroke-linecap="round" stroke-linejoin="round"/>
<path d="M60.6667 25.6967C62.7071 25.6967 64.3612 24.0416 64.3612 22C64.3612 19.9583 62.7071 18.3033 60.6667 18.3033C58.6263 18.3033 56.9723 19.9583 56.9723 22C56.9723 24.0416 58.6263 25.6967 60.6667 25.6967Z" stroke="#1F4529" stroke-width="4" stroke-linecap="round" stroke-linejoin="round"/>
</g>
<path d="M205.333 27.3256C203.677 29.3141 202.061 30.3084 200.487 30.3084C199.38 30.3084 198.403 29.8503 197.556 28.9342C196.709 28.011 196.286 26.9173 196.286 25.6532C196.286 24.1973 196.787 22.887 197.79 21.7223C198.8 20.5505 199.989 19.9646 201.356 19.9646C202.455 19.9646 203.328 20.3375 203.974 21.0832C204.62 21.8289 204.962 22.7379 204.999 23.8103H197.812C197.798 24.0872 197.79 24.2896 197.79 24.4175C197.79 25.6745 198.139 26.7255 198.838 27.5707C199.536 28.4087 200.397 28.8277 201.423 28.8277C202.7 28.8277 204.004 28.0926 205.333 26.6226V27.3256ZM203.172 23.2776C203.083 22.4396 202.804 21.7898 202.336 21.3282C201.868 20.8666 201.315 20.6357 200.676 20.6357C200.007 20.6357 199.409 20.8879 198.882 21.3921C198.355 21.8892 198.032 22.5177 197.913 23.2776H203.172Z" fill="#1F4529"/>
<path d="M185.389 20.2416H188.999V20.7529C188.717 20.7671 188.576 20.8523 188.576 21.0086C188.576 21.0938 188.598 21.1826 188.642 21.2749L191.406 27.8476L192.498 25.0672C192.988 23.8173 193.233 22.7805 193.233 21.9567C193.233 21.5235 193.107 21.2145 192.854 21.0299C192.609 20.8452 192.204 20.7529 191.64 20.7529V20.2416H196.286V20.7529C195.811 20.7813 195.443 20.9305 195.183 21.2003C194.93 21.4631 194.603 22.0454 194.202 22.9474L190.381 32.4283C189.794 33.8841 188.687 34.6795 187.06 34.8145L185.255 32.7798L185.857 32.3217C186.444 33.0177 187.097 33.3657 187.818 33.3657C188.197 33.3657 188.546 33.2521 188.865 33.0248C189.185 32.7976 189.426 32.5277 189.589 32.2152C189.753 31.9098 190.002 31.3381 190.336 30.5001L190.514 30.0634L187.472 22.8302C187.146 22.049 186.834 21.5092 186.536 21.211C186.239 20.9127 185.857 20.76 185.389 20.7529V20.2416Z" fill="#1F4529"/>
<path d="M179.639 29.4881C178.637 30.035 177.693 30.3084 176.809 30.3084C175.851 30.3084 174.904 30.0243 173.968 29.4562C173.032 28.8809 172.319 28.1175 171.829 27.1658C171.338 26.2142 171.093 25.1418 171.093 23.9487C171.093 22.4574 171.465 21.1045 172.208 19.8901C172.95 18.6756 173.931 17.7347 175.149 17.0671C176.367 16.3995 177.742 16.0657 179.272 16.0657C180.46 16.0657 181.808 16.2823 183.316 16.7155V19.9433H182.503C182.377 18.9278 181.909 18.1466 181.099 17.5997C180.289 17.0458 179.335 16.7688 178.235 16.7688C176.78 16.7688 175.539 17.2695 174.514 18.2708C173.496 19.2722 172.988 20.6499 172.988 22.4041C172.988 24.279 173.507 25.8378 174.547 27.0806C175.587 28.3163 176.846 28.9342 178.325 28.9342C179.298 28.9342 180.111 28.6714 180.765 28.1459C181.418 27.6204 181.745 26.9883 181.745 26.2497C181.745 25.1773 181.043 24.6412 179.639 24.6412H179.238V24.1405H184.798V24.6412C184.449 24.6483 184.174 24.7938 183.974 25.0779C183.773 25.362 183.673 25.7029 183.673 26.1006V30.4895H183.116C183.079 29.2396 182.585 28.6146 181.634 28.6146C181.203 28.6146 180.687 28.8135 180.085 29.2112C179.914 29.3177 179.766 29.41 179.639 29.4881Z" fill="#1F4529"/>
<path d="M170.057 29.4881C170.369 30.1699 170.013 30.9795 169.299 31.2778C169.121 31.363 168.943 31.4056 168.765 31.4056C168.185 31.4056 167.65 31.0647 167.428 30.5534L166.001 27.315H157.221L155.795 30.5534C155.483 31.2352 154.681 31.576 153.923 31.2778C153.21 30.9795 152.853 30.2125 153.165 29.4881L160.296 13.1256C160.519 12.6143 161.054 12.316 161.634 12.316C162.168 12.316 162.703 12.6143 162.926 13.1256L170.057 29.4881ZM158.38 24.5453H164.843L161.634 17.2162L158.38 24.5453Z" fill="#1F4529"/>
<path d="M152.943 14.1908L145.812 30.5534C145.589 31.0647 145.054 31.363 144.519 31.363C143.94 31.363 143.405 31.0647 143.182 30.5534L136.051 14.1908C135.739 13.5091 136.096 12.6995 136.809 12.4012C137.566 12.1029 138.369 12.4438 138.681 13.1256L144.519 26.4628L150.313 13.1256C150.625 12.4438 151.427 12.1029 152.185 12.4012C152.898 12.6995 153.255 13.5091 152.943 14.1908Z" fill="#1F4529"/>
<path d="M131.861 24.1192L135.694 29.2325C136.14 29.829 135.962 30.6812 135.338 31.15C135.07 31.3204 134.803 31.4056 134.536 31.4056C134.09 31.4056 133.644 31.1926 133.332 30.8091L128.697 24.5453H124.552V29.9995C124.552 30.7665 123.884 31.363 123.126 31.363C122.324 31.363 121.7 30.7665 121.7 29.9995V13.6369C121.7 12.9125 122.324 12.2734 123.126 12.2734H129.544C133.065 12.2734 135.962 15.0431 135.962 18.4093C135.962 21.0086 134.268 23.2243 131.861 24.1192ZM124.552 15.0431V21.8182H129.544C131.505 21.8182 133.109 20.3268 133.109 18.4519C133.109 16.5345 131.505 15.0431 129.544 15.0431H124.552Z" fill="#1F4529"/>
<path d="M121.7 29.9995C121.7 30.7664 121.031 31.363 120.274 31.363H108.864C108.062 31.363 107.438 30.7664 107.438 29.9995V13.6369C107.438 12.9125 108.062 12.316 108.864 12.316H120.274C121.031 12.316 121.7 12.9125 121.7 13.6795C121.7 14.4039 121.031 15.0431 120.274 15.0431H110.29V20.4972H117.421C118.179 20.4972 118.847 21.0938 118.847 21.8182C118.847 22.5852 118.179 23.2243 117.421 23.2243H110.29V28.6785H120.274C121.031 28.6359 121.7 29.2751 121.7 29.9995Z" fill="#1F4529"/>
<path d="M105.878 27.1019C105.61 28.6359 104.764 29.8716 103.382 30.596C102.268 31.1925 100.975 31.4056 99.6381 31.4056C96.8748 31.4056 94.0224 30.4256 92.5962 29.8716C91.8831 29.6159 91.5266 28.8063 91.8386 28.1246C92.1505 27.4002 92.9528 27.0593 93.7105 27.3576C97.1423 28.7211 100.396 29.0194 102 28.2098C102.624 27.8689 102.936 27.3576 103.07 26.6332C103.426 24.8009 102.268 24.2044 98.4793 23.1391C95.3149 22.2869 90.9917 21.0938 91.8386 16.6197C92.0614 15.2561 92.8636 14.063 94.1116 13.3386C96.1172 12.0603 99.237 11.9751 103.293 12.9977C104.05 13.2108 104.496 13.9352 104.318 14.6596C104.095 15.3839 103.337 15.8101 102.58 15.6396C98.5239 14.617 96.5629 15.0431 95.6269 15.597C95.0921 15.9805 94.7355 16.4492 94.6464 17.0458C94.2899 18.878 95.4486 19.4746 99.237 20.5399C102.401 21.3921 106.725 22.5852 105.878 27.1019Z" fill="#1F4529"/>
<path d="M87.5154 21.2642C89.1644 22.2017 90.3232 23.9487 90.3232 25.9088C90.3232 28.9342 87.7382 31.363 84.6184 31.363H77.4874C76.6851 31.363 76.0612 30.7665 76.0612 29.9995V13.6369C76.0612 12.9125 76.6851 12.2734 77.4874 12.2734H83.1922C86.312 12.2734 88.897 14.7448 88.897 17.7276C88.897 19.0911 88.3622 20.3268 87.5154 21.2642ZM78.9136 15.0431V20.4973H83.1922C84.7521 20.4973 86.0446 19.2615 86.0446 17.7702C86.0446 16.2362 84.7521 15.0431 83.1922 15.0431H78.9136ZM84.6184 28.6359C86.1783 28.6359 87.4708 27.4428 87.4708 25.9088C87.4708 24.4174 86.1783 23.1817 84.6184 23.1817H78.9136V28.6359H84.6184Z" fill="#1F4529"/>
<defs>
<clipPath id="clip0_418_174">
<rect width="29.5556" height="29.5738" fill="white" transform="translate(45.8889 7.2131)"/>
</clipPath>
</defs>
</svg>
