<svg width="324" height="61" viewBox="0 0 324 61" fill="none" xmlns="http://www.w3.org/2000/svg">
<path d="M10.4584 30.5001C10.4584 30.5001 20.2917 10.1667 37.5 10.1667C54.7084 10.1667 64.5417 30.5001 64.5417 30.5001C64.5417 30.5001 54.7084 50.8334 37.5 50.8334C20.2917 50.8334 10.4584 30.5001 10.4584 30.5001Z" stroke="white" stroke-width="4" stroke-linecap="round" stroke-linejoin="round"/>
<path d="M37.5 38.1251C41.5731 38.1251 44.875 34.7113 44.875 30.5001C44.875 26.2889 41.5731 22.8751 37.5 22.8751C33.4269 22.8751 30.125 26.2889 30.125 30.5001C30.125 34.7113 33.4269 38.1251 37.5 38.1251Z" stroke="white" stroke-width="4" stroke-linecap="round" stroke-linejoin="round"/>
<path d="M90.0879 28.9824C93.3398 30.916 95.625 34.5195 95.625 38.5625C95.625 44.8027 90.5273 49.8125 84.375 49.8125H70.3125C68.7305 49.8125 67.5 48.582 67.5 47V13.25C67.5 11.7559 68.7305 10.4375 70.3125 10.4375H81.5625C87.7148 10.4375 92.8125 15.5352 92.8125 21.6875C92.8125 24.5 91.7578 27.0488 90.0879 28.9824ZM73.125 16.1504V27.4004H81.5625C84.6387 27.4004 87.1875 24.8516 87.1875 21.7754C87.1875 18.6113 84.6387 16.1504 81.5625 16.1504H73.125ZM84.375 44.1875C87.4512 44.1875 90 41.7266 90 38.5625C90 35.4863 87.4512 32.9375 84.375 32.9375H73.125V44.1875H84.375ZM126.299 41.0234C125.771 44.1875 124.102 46.7363 121.377 48.2305C119.18 49.4609 116.631 49.9004 113.994 49.9004C108.545 49.9004 102.92 47.8789 100.107 46.7363C98.7012 46.209 97.998 44.5391 98.6133 43.1328C99.2285 41.6387 100.811 40.9355 102.305 41.5508C109.072 44.3633 115.488 44.9785 118.652 43.3086C119.883 42.6055 120.498 41.5508 120.762 40.0566C121.465 36.2773 119.18 35.0469 111.709 32.8496C105.469 31.0918 96.9434 28.6309 98.6133 19.4023C99.0527 16.5898 100.635 14.1289 103.096 12.6348C107.051 9.99805 113.203 9.82227 121.201 11.9316C122.695 12.3711 123.574 13.8652 123.223 15.3594C122.783 16.8535 121.289 17.7324 119.795 17.3809C111.797 15.2715 107.93 16.1504 106.084 17.293C105.029 18.084 104.326 19.0508 104.15 20.2812C103.447 24.0605 105.732 25.291 113.203 27.4883C119.443 29.2461 127.969 31.707 126.299 41.0234ZM157.5 47C157.5 48.582 156.182 49.8125 154.688 49.8125H132.188C130.605 49.8125 129.375 48.582 129.375 47V13.25C129.375 11.7559 130.605 10.5254 132.188 10.5254H154.688C156.182 10.5254 157.5 11.7559 157.5 13.3379C157.5 14.832 156.182 16.1504 154.688 16.1504H135V27.4004H149.062C150.557 27.4004 151.875 28.6309 151.875 30.125C151.875 31.707 150.557 33.0254 149.062 33.0254H135V44.2754H154.688C156.182 44.1875 157.5 45.5059 157.5 47ZM177.539 34.8711L185.098 45.418C185.977 46.6484 185.625 48.4062 184.395 49.373C183.867 49.7246 183.34 49.9004 182.812 49.9004C181.934 49.9004 181.055 49.4609 180.439 48.6699L171.299 35.75H163.125V47C163.125 48.582 161.807 49.8125 160.312 49.8125C158.73 49.8125 157.5 48.582 157.5 47V13.25C157.5 11.7559 158.73 10.4375 160.312 10.4375H172.969C179.912 10.4375 185.625 16.1504 185.625 23.0938C185.625 28.4551 182.285 33.0254 177.539 34.8711ZM163.125 16.1504V30.125H172.969C176.836 30.125 180 27.0488 180 23.1816C180 19.2266 176.836 16.1504 172.969 16.1504H163.125ZM219.111 14.3926L205.049 48.1426C204.609 49.1973 203.555 49.8125 202.5 49.8125C201.357 49.8125 200.303 49.1973 199.863 48.1426L185.801 14.3926C185.186 12.9863 185.889 11.3164 187.295 10.7012C188.789 10.0859 190.371 10.7891 190.986 12.1953L202.5 39.7051L213.926 12.1953C214.541 10.7891 216.123 10.0859 217.617 10.7012C219.023 11.3164 219.727 12.9863 219.111 14.3926ZM252.861 45.9453C253.477 47.3516 252.773 49.0215 251.367 49.6367C251.016 49.8125 250.664 49.9004 250.312 49.9004C249.17 49.9004 248.115 49.1973 247.676 48.1426L244.863 41.4629H227.549L224.736 48.1426C224.121 49.5488 222.539 50.252 221.045 49.6367C219.639 49.0215 218.936 47.4395 219.551 45.9453L233.613 12.1953C234.053 11.1406 235.107 10.5254 236.25 10.5254C237.305 10.5254 238.359 11.1406 238.799 12.1953L252.861 45.9453ZM229.834 35.75H242.578L236.25 20.6328L229.834 35.75ZM271.758 45.9453C269.78 47.0732 267.92 47.6372 266.177 47.6372C264.287 47.6372 262.419 47.0513 260.574 45.8794C258.728 44.6929 257.322 43.1182 256.355 41.1553C255.388 39.1924 254.905 36.9805 254.905 34.5195C254.905 31.4434 255.637 28.6528 257.102 26.1479C258.567 23.6431 260.5 21.7021 262.903 20.3252C265.305 18.9482 268.015 18.2598 271.033 18.2598C273.376 18.2598 276.035 18.7065 279.009 19.6001V26.2578H277.405C277.156 24.1631 276.233 22.5518 274.636 21.4238C273.04 20.2812 271.157 19.71 268.989 19.71C266.118 19.71 263.672 20.7427 261.65 22.8081C259.644 24.8735 258.64 27.7153 258.64 31.3335C258.64 35.2007 259.666 38.416 261.716 40.9795C263.767 43.5283 266.25 44.8027 269.165 44.8027C271.084 44.8027 272.688 44.2607 273.977 43.1768C275.266 42.0928 275.911 40.7891 275.911 39.2656C275.911 37.0537 274.526 35.9478 271.758 35.9478H270.967V34.915H281.931V35.9478C281.243 35.9624 280.701 36.2627 280.305 36.8486C279.91 37.4346 279.712 38.1377 279.712 38.958V48.0107H278.613C278.54 45.4326 277.566 44.1436 275.691 44.1436C274.841 44.1436 273.823 44.5537 272.637 45.374C272.3 45.5938 272.007 45.7842 271.758 45.9453ZM283.096 26.873H290.215V27.9277C289.658 27.957 289.38 28.1328 289.38 28.4551C289.38 28.6309 289.424 28.814 289.512 29.0044L294.961 42.5615L297.114 36.8267C298.081 34.2485 298.564 32.1099 298.564 30.4106C298.564 29.5171 298.315 28.8799 297.817 28.499C297.334 28.1182 296.536 27.9277 295.422 27.9277V26.873H304.585V27.9277C303.647 27.9863 302.922 28.2939 302.41 28.8506C301.912 29.3926 301.267 30.5938 300.476 32.4541L292.939 52.0098C291.782 55.0127 289.6 56.6533 286.392 56.9316L282.832 52.7349L284.019 51.79C285.176 53.2256 286.465 53.9434 287.886 53.9434C288.633 53.9434 289.321 53.709 289.951 53.2402C290.581 52.7715 291.057 52.2148 291.379 51.5703C291.702 50.9404 292.192 49.7612 292.852 48.0327L293.203 47.1318L287.205 32.2124C286.56 30.6011 285.945 29.4878 285.359 28.8726C284.773 28.2573 284.019 27.9424 283.096 27.9277V26.873ZM322.427 41.4849C319.16 45.5864 315.974 47.6372 312.869 47.6372C310.686 47.6372 308.76 46.6924 307.09 44.8027C305.42 42.8984 304.585 40.6426 304.585 38.0352C304.585 35.0322 305.574 32.3296 307.551 29.9272C309.543 27.5103 311.887 26.3018 314.583 26.3018C316.75 26.3018 318.472 27.0708 319.746 28.6089C321.021 30.147 321.694 32.022 321.768 34.2339H307.595C307.566 34.8052 307.551 35.2227 307.551 35.4863C307.551 38.0791 308.24 40.2471 309.617 41.9902C310.994 43.7188 312.693 44.583 314.714 44.583C317.234 44.583 319.805 43.0669 322.427 40.0347V41.4849ZM318.164 33.1353C317.988 31.4067 317.439 30.0664 316.516 29.1143C315.593 28.1621 314.502 27.686 313.242 27.686C311.924 27.686 310.745 28.2061 309.705 29.2461C308.665 30.2715 308.027 31.5679 307.793 33.1353H318.164Z" fill="white"/>
</svg>
